<svg xmlns="http://www.w3.org/2000/svg" xmlns:xlink="http://www.w3.org/1999/xlink" width="500" zoomAndPan="magnify" viewBox="0 0 375 374.999991" height="500" preserveAspectRatio="xMidYMid meet" version="1.0"><path fill="#ffffff" d="M 89.515625 336.734375 C 101.148438 330.28125 112.730469 323.777344 124.414062 317.480469 C 127.972656 315.09375 131.832031 313.402344 135.996094 312.398438 C 136.816406 312.246094 137.640625 312.167969 138.472656 312.164062 C 139.304688 312.160156 140.128906 312.230469 140.949219 312.371094 C 141.769531 312.515625 142.570312 312.726562 143.351562 313.011719 C 144.132812 313.296875 144.882812 313.648438 145.601562 314.066406 C 146.320312 314.488281 146.996094 314.964844 147.628906 315.503906 C 148.265625 316.042969 148.84375 316.632812 149.375 317.273438 C 149.902344 317.917969 150.371094 318.601562 150.777344 319.328125 C 151.183594 320.050781 151.523438 320.808594 151.796875 321.59375 C 152.152344 322.347656 152.441406 323.125 152.660156 323.925781 C 152.882812 324.730469 153.03125 325.542969 153.105469 326.375 C 153.183594 327.203125 153.1875 328.03125 153.117188 328.859375 C 153.050781 329.691406 152.910156 330.507812 152.699219 331.3125 C 152.484375 332.117188 152.203125 332.898438 151.855469 333.652344 C 151.507812 334.410156 151.09375 335.128906 150.617188 335.8125 C 150.144531 336.496094 149.613281 337.128906 149.023438 337.71875 C 148.4375 338.3125 147.804688 338.84375 147.121094 339.324219 C 141.515625 343.808594 135.574219 347.785156 129.292969 351.261719 C 119.082031 356.855469 108.460938 361.515625 97.425781 365.234375 C 86.394531 368.957031 75.121094 371.679688 63.605469 373.410156 C 48.367188 375.695312 42.980469 370.007812 46.996094 355.324219 C 50.753906 341.507812 54.359375 327.640625 58.578125 313.972656 C 59.042969 312.734375 59.316406 311.449219 59.402344 310.125 C 59.484375 308.804688 59.371094 307.496094 59.0625 306.207031 C 58.753906 304.917969 58.265625 303.699219 57.59375 302.558594 C 56.921875 301.414062 56.097656 300.394531 55.125 299.496094 C 12.246094 250.472656 -4.871094 193.882812 8.792969 129.671875 C 18.648438 83.644531 47.757812 51.488281 87.6875 28.070312 C 163.023438 -15.773438 263.457031 -3.984375 325.179688 56.007812 C 386.902344 116.003906 387.15625 213.035156 325.6875 269.371094 C 289.414062 302.695312 245.574219 313.160156 197.820312 304.929688 C 144.886719 295.992188 104.246094 268.457031 82.605469 217.65625 C 69.703125 187.175781 66.808594 155.324219 82.605469 124.4375 C 103.28125 84.457031 148.089844 71.503906 183.699219 96.242188 C 184.941406 96.9375 186.277344 97.3125 187.699219 97.367188 C 189.125 97.421875 190.484375 97.148438 191.777344 96.546875 C 234.449219 65.304688 289.160156 94.667969 300.691406 143.996094 C 301.296875 146.421875 301.792969 148.867188 302.171875 151.335938 C 302.554688 153.808594 302.820312 156.289062 302.972656 158.785156 C 303.125 161.277344 303.164062 163.777344 303.089844 166.273438 C 303.011719 168.773438 302.820312 171.261719 302.515625 173.742188 C 302.210938 176.222656 301.792969 178.683594 301.257812 181.125 C 300.726562 183.566406 300.085938 185.980469 299.332031 188.363281 C 298.578125 190.746094 297.71875 193.089844 296.75 195.394531 C 295.78125 197.699219 294.710938 199.953125 293.53125 202.15625 C 292.355469 204.363281 291.082031 206.507812 289.710938 208.597656 C 288.335938 210.6875 286.871094 212.707031 285.3125 214.660156 C 283.753906 216.613281 282.109375 218.492188 280.375 220.292969 C 278.644531 222.097656 276.835938 223.816406 274.945312 225.453125 C 273.054688 227.085938 271.09375 228.632812 269.0625 230.089844 C 267.03125 231.546875 264.9375 232.90625 262.78125 234.167969 C 260.625 235.429688 258.414062 236.59375 256.152344 237.652344 C 253.890625 238.714844 251.582031 239.667969 249.230469 240.515625 C 246.023438 241.789062 242.722656 242.738281 239.324219 243.363281 C 238.410156 243.554688 237.488281 243.667969 236.550781 243.695312 C 235.617188 243.726562 234.6875 243.671875 233.761719 243.535156 C 232.839844 243.398438 231.933594 243.179688 231.046875 242.882812 C 230.160156 242.582031 229.308594 242.207031 228.488281 241.757812 C 227.671875 241.304688 226.898438 240.785156 226.171875 240.195312 C 225.445312 239.605469 224.777344 238.957031 224.167969 238.25 C 223.558594 237.539062 223.015625 236.785156 222.542969 235.980469 C 222.066406 235.171875 221.667969 234.332031 221.34375 233.457031 C 221.027344 232.574219 220.792969 231.671875 220.644531 230.75 C 220.492188 229.824219 220.429688 228.894531 220.449219 227.960938 C 220.472656 227.023438 220.578125 226.097656 220.769531 225.183594 C 220.960938 224.265625 221.234375 223.375 221.59375 222.511719 C 221.949219 221.644531 222.378906 220.820312 222.886719 220.035156 C 223.394531 219.25 223.972656 218.515625 224.613281 217.835938 C 225.257812 217.15625 225.957031 216.539062 226.714844 215.988281 C 227.46875 215.4375 228.269531 214.960938 229.113281 214.558594 C 236.894531 210.207031 244.378906 205.398438 251.570312 200.128906 C 252.882812 199.078125 254.144531 197.960938 255.34375 196.777344 C 256.546875 195.59375 257.683594 194.355469 258.761719 193.054688 C 259.835938 191.757812 260.84375 190.410156 261.78125 189.007812 C 262.714844 187.605469 263.582031 186.160156 264.371094 184.671875 C 265.160156 183.183594 265.871094 181.65625 266.507812 180.097656 C 267.140625 178.535156 267.691406 176.945312 268.164062 175.324219 C 268.636719 173.707031 269.023438 172.070312 269.328125 170.410156 C 269.632812 168.753906 269.851562 167.085938 269.988281 165.402344 C 270.121094 163.722656 270.167969 162.042969 270.132812 160.355469 C 270.09375 158.671875 269.96875 156.992188 269.761719 155.320312 C 269.550781 153.648438 269.257812 151.988281 268.878906 150.347656 C 268.5 148.703125 268.039062 147.085938 267.496094 145.488281 C 266.953125 143.894531 266.328125 142.328125 265.625 140.796875 C 264.921875 139.265625 264.144531 137.773438 263.289062 136.320312 C 262.433594 134.867188 261.503906 133.464844 260.507812 132.105469 C 259.507812 130.75 258.441406 129.445312 257.308594 128.195312 C 243.644531 112.957031 225.609375 110.671875 208.84375 122.457031 C 204.71875 125.59375 200.808594 128.980469 197.109375 132.617188 C 196.839844 132.953125 196.550781 133.277344 196.246094 133.582031 C 195.941406 133.886719 195.621094 134.175781 195.285156 134.449219 C 194.949219 134.71875 194.597656 134.972656 194.234375 135.207031 C 193.871094 135.441406 193.496094 135.65625 193.109375 135.847656 C 192.722656 136.039062 192.324219 136.210938 191.917969 136.363281 C 191.515625 136.511719 191.101562 136.640625 190.683594 136.746094 C 190.261719 136.851562 189.839844 136.933594 189.410156 136.996094 C 188.984375 137.054688 188.554688 137.089844 188.121094 137.105469 C 187.6875 137.117188 187.257812 137.105469 186.824219 137.074219 C 186.394531 137.039062 185.964844 136.984375 185.542969 136.902344 C 185.117188 136.824219 184.695312 136.722656 184.285156 136.597656 C 183.871094 136.472656 183.464844 136.324219 183.066406 136.15625 C 182.667969 135.984375 182.28125 135.796875 181.902344 135.585938 C 181.523438 135.375 181.160156 135.144531 180.808594 134.894531 C 180.453125 134.640625 180.117188 134.375 179.792969 134.085938 C 179.46875 133.800781 179.164062 133.496094 178.871094 133.175781 C 174.808594 129.566406 170.441406 126.265625 166.070312 123.015625 C 148.140625 109.808594 128.785156 112.855469 116.234375 131.5 C 99.167969 156.746094 101.554688 183.265625 113.898438 209.222656 C 135.386719 254.03125 173.792969 274.402344 221.851562 276.484375 C 260.101562 278.109375 292.972656 263.9375 316.238281 232.742188 C 317.230469 231.40625 318.195312 230.050781 319.128906 228.671875 C 320.0625 227.296875 320.96875 225.898438 321.84375 224.484375 C 322.71875 223.066406 323.5625 221.632812 324.375 220.179688 C 325.1875 218.726562 325.96875 217.257812 326.71875 215.769531 C 327.46875 214.285156 328.183594 212.785156 328.871094 211.265625 C 329.554688 209.75 330.207031 208.21875 330.828125 206.671875 C 331.449219 205.128906 332.035156 203.570312 332.585938 202 C 333.140625 200.429688 333.65625 198.847656 334.140625 197.257812 C 334.625 195.664062 335.078125 194.0625 335.492188 192.449219 C 335.910156 190.835938 336.289062 189.21875 336.636719 187.589844 C 336.980469 185.960938 337.292969 184.328125 337.570312 182.683594 C 337.84375 181.042969 338.085938 179.398438 338.289062 177.746094 C 338.496094 176.09375 338.664062 174.4375 338.800781 172.777344 C 338.933594 171.117188 339.03125 169.457031 339.09375 167.792969 C 339.15625 166.128906 339.183594 164.464844 339.175781 162.800781 C 339.167969 161.136719 339.121094 159.472656 339.042969 157.8125 C 338.960938 156.148438 338.847656 154.488281 338.695312 152.832031 C 338.542969 151.171875 338.355469 149.519531 338.132812 147.867188 C 337.910156 146.21875 337.652344 144.574219 337.359375 142.9375 C 337.066406 141.296875 336.738281 139.667969 336.375 138.042969 C 336.011719 136.417969 335.613281 134.800781 335.179688 133.195312 C 334.746094 131.585938 334.28125 129.988281 333.777344 128.402344 C 333.277344 126.816406 332.742188 125.238281 332.171875 123.675781 C 331.605469 122.109375 331 120.558594 330.367188 119.019531 C 329.730469 117.480469 329.0625 115.957031 328.359375 114.449219 C 327.660156 112.9375 326.925781 111.445312 326.160156 109.96875 C 325.394531 108.488281 324.597656 107.027344 323.769531 105.582031 C 322.941406 104.140625 322.082031 102.714844 321.191406 101.308594 C 320.304688 99.898438 319.382812 98.511719 318.433594 97.144531 C 317.484375 95.777344 316.507812 94.429688 315.5 93.105469 C 314.492188 91.78125 313.457031 90.476562 312.394531 89.195312 C 311.332031 87.914062 310.242188 86.65625 309.125 85.421875 C 245.777344 13.894531 121.773438 16.132812 62.4375 90.503906 C 32.820312 127.738281 30.484375 170.257812 43.640625 214.457031 C 45.53125 221.089844 47.863281 227.558594 50.648438 233.867188 C 53.429688 240.179688 56.632812 246.265625 60.257812 252.132812 C 63.882812 258 67.894531 263.585938 72.289062 268.898438 C 76.6875 274.210938 81.429688 279.195312 86.519531 283.847656 C 87.449219 284.570312 88.316406 285.363281 89.121094 286.230469 C 89.921875 287.09375 90.652344 288.015625 91.304688 288.996094 C 91.957031 289.980469 92.523438 291.007812 93.011719 292.082031 C 93.496094 293.15625 93.890625 294.265625 94.195312 295.402344 C 94.5 296.542969 94.714844 297.699219 94.832031 298.871094 C 94.949219 300.046875 94.96875 301.222656 94.894531 302.398438 C 94.820312 303.574219 94.652344 304.738281 94.386719 305.886719 C 94.125 307.039062 93.769531 308.15625 93.324219 309.25 C 90.683594 317.277344 88.855469 325.605469 86.671875 333.785156 Z M 89.515625 336.734375 " fill-opacity="1" fill-rule="nonzero"/></svg>