<svg xmlns="http://www.w3.org/2000/svg" xmlns:xlink="http://www.w3.org/1999/xlink" width="500" zoomAndPan="magnify" viewBox="0 0 375 374.999991" height="500" preserveAspectRatio="xMidYMid meet" version="1.0"><path fill="#fb508d" d="M 94.152344 331.53125 C 104.839844 325.601562 115.480469 319.628906 126.214844 313.839844 C 129.484375 311.652344 133.03125 310.09375 136.855469 309.175781 C 137.609375 309.035156 138.367188 308.964844 139.128906 308.960938 C 139.894531 308.957031 140.652344 309.019531 141.40625 309.148438 C 142.160156 309.28125 142.894531 309.476562 143.613281 309.738281 C 144.332031 310 145.019531 310.324219 145.679688 310.707031 C 146.339844 311.09375 146.960938 311.53125 147.546875 312.027344 C 148.128906 312.523438 148.660156 313.0625 149.148438 313.65625 C 149.632812 314.246094 150.0625 314.871094 150.4375 315.539062 C 150.808594 316.207031 151.121094 316.898438 151.371094 317.621094 C 151.699219 318.3125 151.964844 319.027344 152.167969 319.765625 C 152.371094 320.503906 152.503906 321.25 152.578125 322.011719 C 152.648438 322.773438 152.652344 323.535156 152.585938 324.296875 C 152.523438 325.0625 152.394531 325.8125 152.199219 326.550781 C 152.003906 327.289062 151.746094 328.007812 151.425781 328.699219 C 151.105469 329.394531 150.726562 330.054688 150.289062 330.683594 C 149.855469 331.3125 149.367188 331.894531 148.828125 332.4375 C 148.285156 332.980469 147.703125 333.472656 147.078125 333.910156 C 141.929688 338.03125 136.46875 341.6875 130.695312 344.878906 C 121.316406 350.019531 111.558594 354.300781 101.421875 357.71875 C 91.285156 361.136719 80.925781 363.640625 70.347656 365.230469 C 56.347656 367.328125 51.398438 362.101562 55.085938 348.613281 C 58.539062 335.917969 61.855469 323.175781 65.726562 310.621094 C 66.15625 309.480469 66.40625 308.300781 66.484375 307.085938 C 66.558594 305.871094 66.457031 304.671875 66.171875 303.484375 C 65.890625 302.300781 65.441406 301.183594 64.824219 300.132812 C 64.207031 299.082031 63.449219 298.144531 62.554688 297.320312 C 23.160156 252.28125 7.433594 200.285156 19.988281 141.292969 C 29.042969 99.003906 55.785156 69.460938 92.472656 47.945312 C 161.6875 7.667969 253.960938 18.496094 310.667969 73.613281 C 367.375 128.734375 367.609375 217.882812 311.132812 269.640625 C 277.808594 300.261719 237.53125 309.875 193.660156 302.3125 C 145.023438 294.097656 107.6875 268.800781 87.804688 222.128906 C 75.949219 194.125 73.289062 164.859375 87.804688 136.484375 C 106.800781 99.753906 147.964844 87.851562 180.683594 110.582031 C 181.828125 111.21875 183.050781 111.5625 184.359375 111.613281 C 185.667969 111.660156 186.917969 111.410156 188.105469 110.859375 C 227.308594 82.15625 277.578125 109.132812 288.171875 154.453125 C 288.726562 156.679688 289.179688 158.929688 289.53125 161.199219 C 289.882812 163.46875 290.125 165.75 290.265625 168.039062 C 290.40625 170.332031 290.441406 172.625 290.371094 174.921875 C 290.300781 177.214844 290.125 179.503906 289.847656 181.78125 C 289.566406 184.0625 289.179688 186.324219 288.691406 188.566406 C 288.203125 190.808594 287.613281 193.027344 286.921875 195.214844 C 286.230469 197.40625 285.4375 199.558594 284.550781 201.675781 C 283.660156 203.792969 282.675781 205.863281 281.59375 207.890625 C 280.511719 209.914062 279.34375 211.886719 278.082031 213.804688 C 276.820312 215.726562 275.472656 217.582031 274.039062 219.375 C 272.609375 221.171875 271.097656 222.898438 269.507812 224.550781 C 267.914062 226.207031 266.25 227.789062 264.515625 229.292969 C 262.78125 230.792969 260.980469 232.214844 259.113281 233.550781 C 257.246094 234.890625 255.324219 236.136719 253.339844 237.300781 C 251.359375 238.460938 249.328125 239.527344 247.25 240.5 C 245.171875 241.476562 243.050781 242.351562 240.890625 243.132812 C 237.945312 244.304688 234.910156 245.175781 231.789062 245.746094 C 230.949219 245.925781 230.101562 246.027344 229.242188 246.054688 C 228.382812 246.082031 227.53125 246.03125 226.679688 245.90625 C 225.832031 245.777344 225 245.578125 224.183594 245.304688 C 223.371094 245.03125 222.585938 244.683594 221.835938 244.269531 C 221.082031 243.855469 220.371094 243.378906 219.707031 242.835938 C 219.039062 242.296875 218.425781 241.699219 217.863281 241.050781 C 217.304688 240.398438 216.804688 239.703125 216.371094 238.960938 C 215.933594 238.222656 215.566406 237.449219 215.269531 236.644531 C 214.976562 235.835938 214.761719 235.007812 214.625 234.15625 C 214.488281 233.308594 214.429688 232.453125 214.449219 231.59375 C 214.46875 230.734375 214.566406 229.886719 214.742188 229.042969 C 214.917969 228.203125 215.171875 227.382812 215.496094 226.589844 C 215.824219 225.792969 216.222656 225.035156 216.6875 224.3125 C 217.15625 223.589844 217.683594 222.917969 218.273438 222.292969 C 218.867188 221.667969 219.507812 221.105469 220.203125 220.597656 C 220.898438 220.089844 221.632812 219.652344 222.410156 219.28125 C 229.558594 215.285156 236.433594 210.867188 243.039062 206.027344 C 244.246094 205.058594 245.402344 204.03125 246.507812 202.945312 C 247.613281 201.859375 248.660156 200.71875 249.644531 199.527344 C 250.632812 198.335938 251.558594 197.09375 252.417969 195.808594 C 253.28125 194.519531 254.074219 193.191406 254.800781 191.824219 C 255.527344 190.457031 256.179688 189.054688 256.761719 187.621094 C 257.34375 186.183594 257.851562 184.722656 258.285156 183.238281 C 258.71875 181.75 259.078125 180.246094 259.355469 178.722656 C 259.636719 177.199219 259.835938 175.667969 259.960938 174.121094 C 260.082031 172.578125 260.128906 171.03125 260.09375 169.484375 C 260.058594 167.9375 259.945312 166.394531 259.753906 164.855469 C 259.5625 163.320312 259.292969 161.796875 258.945312 160.289062 C 258.597656 158.777344 258.171875 157.289062 257.671875 155.824219 C 257.171875 154.359375 256.601562 152.921875 255.953125 151.515625 C 255.308594 150.109375 254.59375 148.738281 253.804688 147.402344 C 253.019531 146.066406 252.167969 144.777344 251.25 143.53125 C 250.332031 142.28125 249.351562 141.085938 248.3125 139.9375 C 235.757812 125.9375 219.1875 123.835938 203.785156 134.664062 C 199.996094 137.546875 196.402344 140.660156 193.003906 144 C 192.757812 144.308594 192.492188 144.605469 192.210938 144.886719 C 191.929688 145.167969 191.636719 145.433594 191.328125 145.683594 C 191.019531 145.929688 190.695312 146.164062 190.363281 146.378906 C 190.027344 146.59375 189.683594 146.789062 189.328125 146.96875 C 188.972656 147.144531 188.609375 147.300781 188.234375 147.441406 C 187.863281 147.578125 187.484375 147.695312 187.097656 147.792969 C 186.714844 147.890625 186.324219 147.964844 185.929688 148.019531 C 185.539062 148.074219 185.144531 148.109375 184.746094 148.121094 C 184.347656 148.132812 183.953125 148.125 183.554688 148.09375 C 183.160156 148.0625 182.765625 148.011719 182.375 147.9375 C 181.984375 147.863281 181.601562 147.769531 181.21875 147.65625 C 180.839844 147.539062 180.464844 147.40625 180.101562 147.25 C 179.734375 147.09375 179.378906 146.917969 179.03125 146.726562 C 178.6875 146.53125 178.351562 146.320312 178.027344 146.089844 C 177.703125 145.859375 177.390625 145.613281 177.09375 145.347656 C 176.796875 145.085938 176.515625 144.804688 176.25 144.511719 C 172.515625 141.199219 168.5 138.164062 164.488281 135.175781 C 148.011719 123.042969 130.230469 125.84375 118.703125 142.972656 C 103.019531 166.167969 105.210938 190.53125 116.554688 214.382812 C 136.296875 255.546875 171.582031 274.261719 215.734375 276.175781 C 250.878906 277.671875 281.078125 264.648438 302.453125 235.992188 C 304.277344 233.535156 305.996094 231.003906 307.601562 228.402344 C 309.210938 225.796875 310.703125 223.128906 312.082031 220.398438 C 313.460938 217.664062 314.71875 214.878906 315.859375 212.039062 C 316.996094 209.199219 318.011719 206.3125 318.902344 203.386719 C 319.792969 200.457031 320.558594 197.5 321.195312 194.503906 C 321.832031 191.511719 322.335938 188.496094 322.714844 185.460938 C 323.09375 182.421875 323.339844 179.375 323.453125 176.316406 C 323.570312 173.257812 323.554688 170.203125 323.40625 167.144531 C 323.257812 164.089844 322.980469 161.042969 322.570312 158.011719 C 322.160156 154.980469 321.621094 151.96875 320.953125 148.984375 C 320.285156 145.996094 319.492188 143.042969 318.570312 140.125 C 317.648438 137.207031 316.601562 134.335938 315.433594 131.507812 C 314.265625 128.679688 312.976562 125.90625 311.570312 123.1875 C 310.160156 120.472656 308.640625 117.820312 307.003906 115.234375 C 305.371094 112.644531 303.628906 110.132812 301.777344 107.699219 C 299.925781 105.261719 297.972656 102.90625 295.917969 100.640625 C 237.71875 34.921875 123.789062 36.976562 69.273438 105.304688 C 42.0625 139.519531 39.917969 178.582031 52.003906 219.1875 C 53.738281 225.28125 55.886719 231.226562 58.441406 237.023438 C 60.996094 242.820312 63.941406 248.414062 67.269531 253.804688 C 70.601562 259.195312 74.285156 264.328125 78.328125 269.207031 C 82.367188 274.089844 86.722656 278.667969 91.398438 282.945312 C 92.253906 283.609375 93.050781 284.335938 93.789062 285.128906 C 94.527344 285.921875 95.195312 286.773438 95.792969 287.675781 C 96.394531 288.578125 96.917969 289.519531 97.363281 290.507812 C 97.808594 291.496094 98.171875 292.511719 98.453125 293.558594 C 98.734375 294.605469 98.925781 295.667969 99.035156 296.746094 C 99.140625 297.824219 99.160156 298.90625 99.09375 299.984375 C 99.027344 301.066406 98.871094 302.136719 98.628906 303.191406 C 98.386719 304.246094 98.0625 305.277344 97.652344 306.28125 C 95.226562 313.65625 93.542969 321.308594 91.539062 328.824219 Z M 94.152344 331.53125 " fill-opacity="1" fill-rule="nonzero"/></svg>